<svg width="64" height="64" viewBox="0 0 64 64" fill="none" xmlns="http://www.w3.org/2000/svg">
<g clip-path="url(#clip0_808_56)">
<g filter="url(#filter0_f_808_56)">
<circle cx="32" cy="32" r="17" fill="#8D50EC" fill-opacity="0.3"/>
</g>
<g filter="url(#filter1_f_808_56)">
<circle cx="32" cy="32" r="28" fill="#8D50EC" fill-opacity="0.3"/>
</g>
<path d="M56 32C56 45.2548 45.2548 56 32 56C18.7452 56 8 45.2548 8 32C8 18.7452 18.7452 8 32 8C45.2548 8 56 18.7452 56 32ZM10.0292 32C10.0292 44.1341 19.8659 53.9708 32 53.9708C44.1341 53.9708 53.9708 44.1341 53.9708 32C53.9708 19.8659 44.1341 10.0292 32 10.0292C19.8659 10.0292 10.0292 19.8659 10.0292 32Z" fill="#851BDF"/>
<circle cx="31.5" cy="31.5" r="13.5" fill="#8D50EC"/>
</g>
<defs>
<filter id="filter0_f_808_56" x="3" y="3" width="58" height="58" filterUnits="userSpaceOnUse" color-interpolation-filters="sRGB">
<feFlood flood-opacity="0" result="BackgroundImageFix"/>
<feBlend mode="normal" in="SourceGraphic" in2="BackgroundImageFix" result="shape"/>
<feGaussianBlur stdDeviation="6" result="effect1_foregroundBlur_808_56"/>
</filter>
<filter id="filter1_f_808_56" x="-1" y="-1" width="66" height="66" filterUnits="userSpaceOnUse" color-interpolation-filters="sRGB">
<feFlood flood-opacity="0" result="BackgroundImageFix"/>
<feBlend mode="normal" in="SourceGraphic" in2="BackgroundImageFix" result="shape"/>
<feGaussianBlur stdDeviation="2.5" result="effect1_foregroundBlur_808_56"/>
</filter>
<clipPath id="clip0_808_56">
<rect width="64" height="64" fill="white"/>
</clipPath>
</defs>
</svg>
